<?xml version="1.0" encoding="UTF-8" standalone="no"?>
<!-- Created with Inkscape (http://www.inkscape.org/) -->

<svg
   width="341.90000000000003"
   height="34.7948300270298"
   viewBox="0 0 375 38.16338479127281"
   class="css-1j8o68f"
   version="1.1"
   id="svg2"
   sodipodi:docname="dessin.svg"
   inkscape:version="1.3 (0e150ed6c4, 2023-07-21)"
   xmlns:inkscape="http://www.inkscape.org/namespaces/inkscape"
   xmlns:sodipodi="http://sodipodi.sourceforge.net/DTD/sodipodi-0.dtd"
   xmlns="http://www.w3.org/2000/svg"
   xmlns:svg="http://www.w3.org/2000/svg">
  <sodipodi:namedview
     id="namedview2"
     pagecolor="#ffffff"
     bordercolor="#666666"
     borderopacity="1.0"
     inkscape:showpageshadow="2"
     inkscape:pageopacity="0.0"
     inkscape:pagecheckerboard="0"
     inkscape:deskcolor="#d1d1d1"
     showgrid="false"
     inkscape:zoom="4.3803808"
     inkscape:cx="134.23491"
     inkscape:cy="23.856373"
     inkscape:window-width="2560"
     inkscape:window-height="1417"
     inkscape:window-x="-8"
     inkscape:window-y="-8"
     inkscape:window-maximized="1"
     inkscape:current-layer="svg2" />
  <defs
     id="SvgjsDefs2919" />
  <g
     id="SvgjsG2920"
     featurekey="nRdZyp-0"
     transform="matrix(0.51184557,0,0,0.55555556,10.602515,-8.5676071)"
     fill="#ffffff"
     style="fill:#999999;fill-opacity:1">
    <path
       d="m 38.481,69.952 -1.83,3.17 H 63.35 l -1.83,-3.17 H 38.481 M 63.35,26.878 H 36.651 l 1.83,3.17 h 23.038 l 1.831,-3.17 M 40.311,33.218 30.622,50 40.311,66.782 H 59.689 L 69.378,50 59.689,33.218 H 40.311 M 35.736,74.707 21.471,50 35.735,25.293 H 64.264 L 78.529,50 64.265,74.707 H 35.736"
       style="clip-rule:evenodd;fill:#999999;fill-opacity:1;fill-rule:evenodd"
       id="path1" />
    <polyline
       points="77.614,35.736 82.189,27.811 95,50 82.189,72.189 77.614,64.264 85.85,50 77.614,35.736 "
       style="clip-rule:evenodd;fill:#999999;fill-opacity:1;fill-rule:evenodd"
       id="polyline1" />
    <polyline
       points="17.811,72.189 5,50 17.811,27.811 22.386,35.736 14.151,50 22.386,64.264 17.811,72.189 "
       style="clip-rule:evenodd;fill:#999999;fill-opacity:1;fill-rule:evenodd"
       id="polyline2" />
  </g>
  <g
     id="SvgjsG2921"
     featurekey="Q4qmbg-0"
     transform="matrix(2.368813,0,0,2.368813,70.494538,-11.470848)"
     fill="#ffffff"
     style="fill:#999999;fill-opacity:1">
    <path
       d="M 4.16,15.1 V 12.58 H 5.74 L 6.12,12.2 V 8.9 L 5.74,8.52 H 4.16 V 6 h 2.62 l 1.86,1.86 v 5.38 L 6.78,15.1 Z M 0.8,20 V 15.94 H 3.32 V 20 Z m 0,-4.9 V 6 h 2.52 v 9.1 z m 14.778979,4.9 -1.36,-5.18 h -0.98 V 12.3 h 1.58 l 0.38,-0.38 V 8.9 l -0.38,-0.38 h -1.58 V 6 h 2.62 l 1.86,1.86 v 5.1 l -1.08,1.1 1.54,5.94 z M 9.8789792,20 V 15.66 H 12.398979 V 20 Z m 0,-5.18 V 6 h 2.5199998 v 8.82 z M 19.217958,12.58 V 6 h 2.52 v 6.58 z m 0,7.42 v -6.58 h 2.52 V 20 Z m 6.178979,0 -2.82,-14 h 2.58 l 2.82,14 z m 3.44,0 -1.26,-6.26 1.56,-7.74 h 2.56 l -2.82,14 z m 3.29898,0 1.14,-5.6 h 4.28 l -0.86,-4.28 -0.68,3.44 h -2.58 l 1.52,-7.56 h 3.48 l 2.2,10.92 h -5.3 l -0.62,3.08 z m 6.56,0 -0.46,-2.24 h 2.58 l 0.44,2.24 z m 6.058979,0 V 9.36 h 2.52 V 20 Z m -2.66,-11.48 V 6 h 7.84 v 2.52 z m 9.078979,5.74 V 6 h 2.52 v 8.26 z m 0,5.74 v -4.9 h 2.52 V 20 Z m 3.36,0 v -2.52 h 3.5 V 20 Z m 0,-5.74 v -2.52 h 2.38 v 2.52 z m 0,-5.74 V 6 h 3.5 v 2.52 z m 4.738979,5.32 v -1.68 h 5.32 v 1.68 z m 8.418979,6.16 -1.86,-1.86 V 7.86 l 1.86,-1.86 h 1.78 v 2.52 h -0.74 l -0.38,0.38 v 8.2 l 0.38,0.38 h 0.74 V 20 Z m 2.62,0 v -2.52 h 0.74 l 0.38,-0.38 v -1.58 h 2.52 v 2.62 l -1.86,1.86 z m 1.12,-9.52 V 8.9 l -0.38,-0.38 h -0.74 V 6 h 1.78 l 1.86,1.86 v 2.62 z m 7.118979,3.78 v -2.52 h 2.24 V 6 h 2.52 v 8.26 z m -3.36,5.74 V 6 h 2.52 v 14 z m 5.6,0 v -4.9 h 2.52 V 20 Z m 3.35898,0 1.14,-5.6 h 4.28 l -0.86,-4.28 -0.68,3.44 h -2.58 l 1.52,-7.56 h 3.48 l 2.2,10.92 h -5.3 l -0.62,3.08 z m 6.56,0 -0.46,-2.24 h 2.58 l 0.44,2.24 z m 8.878979,0 -5.48,-14 h 2.72 l 2.92,7.48 V 6 h 2.519999 v 14 z m -5.44,0 V 8.4 l 2.52,6.42 V 20 Z m 14.838979,0 -5.48,-14 h 2.72 l 2.92,7.48 V 6 h 2.52 v 14 z m -5.44,0 V 8.4 l 2.52,6.42 V 20 Z m 9.35898,-5.74 V 6 h 2.52 v 8.26 z m 0,5.74 v -4.9 h 2.52 V 20 Z m 3.36,0 v -2.52 h 3.5 V 20 Z m 0,-5.74 v -2.52 h 2.38 v 2.52 z m 0,-5.74 V 6 h 3.5 v 2.52 z m 4.73898,8.12 V 6 h 2.52 v 10.64 z m 0,3.36 v -2.52 h 2.52 V 20 Z m 3.36,0 v -2.52 h 3.08 V 20 Z"
       id="path2"
       style="fill:#999999;fill-opacity:1" />
  </g>
</svg>
