<?xml version="1.0" encoding="UTF-8" standalone="no"?>
<!-- Created with Inkscape (http://www.inkscape.org/) -->

<svg
   width="58"
   height="58"
   viewBox="0 0 63.615093 63.615092"
   class="css-1j8o68f"
   version="1.1"
   id="svg2"
   sodipodi:docname="dessin.svg"
   inkscape:version="1.3 (0e150ed6c4, 2023-07-21)"
   xmlns:inkscape="http://www.inkscape.org/namespaces/inkscape"
   xmlns:sodipodi="http://sodipodi.sourceforge.net/DTD/sodipodi-0.dtd"
   xmlns="http://www.w3.org/2000/svg"
   xmlns:svg="http://www.w3.org/2000/svg">
  <sodipodi:namedview
     id="namedview2"
     pagecolor="#ffffff"
     bordercolor="#666666"
     borderopacity="1.0"
     inkscape:showpageshadow="2"
     inkscape:pageopacity="0.0"
     inkscape:pagecheckerboard="0"
     inkscape:deskcolor="#d1d1d1"
     showgrid="false"
     inkscape:zoom="4.3803808"
     inkscape:cx="134.23491"
     inkscape:cy="23.856373"
     inkscape:window-width="2560"
     inkscape:window-height="1417"
     inkscape:window-x="-8"
     inkscape:window-y="-8"
     inkscape:window-maximized="1"
     inkscape:current-layer="svg2" />
  <defs
     id="SvgjsDefs2919" />
  <g
     id="SvgjsG2920"
     featurekey="nRdZyp-0"
     transform="matrix(0.51184557,0,0,0.55490951,6.2152677,3.5136648)"
     fill="#ffffff"
     style="fill:#999999;fill-opacity:1">
    <path
       d="m 38.481,69.952 -1.83,3.17 H 63.35 l -1.83,-3.17 H 38.481 M 63.35,26.878 H 36.651 l 1.83,3.17 h 23.038 l 1.831,-3.17 M 40.311,33.218 30.622,50 40.311,66.782 H 59.689 L 69.378,50 59.689,33.218 H 40.311 M 35.736,74.707 21.471,50 35.735,25.293 H 64.264 L 78.529,50 64.265,74.707 H 35.736"
       style="clip-rule:evenodd;fill:#999999;fill-opacity:1;fill-rule:evenodd"
       id="path1" />
    <polyline
       points="77.614,35.736 82.189,27.811 95,50 82.189,72.189 77.614,64.264 85.85,50 77.614,35.736 "
       style="clip-rule:evenodd;fill:#999999;fill-opacity:1;fill-rule:evenodd"
       id="polyline1" />
    <polyline
       points="17.811,72.189 5,50 17.811,27.811 22.386,35.736 14.151,50 22.386,64.264 17.811,72.189 "
       style="clip-rule:evenodd;fill:#999999;fill-opacity:1;fill-rule:evenodd"
       id="polyline2" />
  </g>
</svg>
